
<global>
amp_veltrack=0
ampeg_attack=0.001
ampeg_release=1.5
</global>

<group>
group_label=RR1
seq_length=4
seq_position=1

<region>
hivel=123
key=G3
lovel=57
offset=4417
sample=Tenors_Line_Drum_1_Dreads_Hit_F_D4_RR1.opus
xf_velcurve=gain
xfin_hivel=77
xfin_lovel=57
xfout_hivel=123
xfout_lovel=103
</region>

<region>
hivel=127
key=G3
lovel=83
offset=3928
sample=Tenors_Line_Drum_1_Dreads_Hit_FF_D4_RR1.opus
xf_velcurve=gain
xfin_hivel=103
xfin_lovel=83
</region>

<region>
hivel=97
key=G3
lovel=31
offset=4760
sample=Tenors_Line_Drum_1_Dreads_Hit_MF_D4_RR1.opus
xf_velcurve=gain
xfin_hivel=51
xfin_lovel=31
xfout_hivel=97
xfout_lovel=77
</region>

<region>
hivel=71
key=G3
lovel=5
offset=4424
sample=Tenors_Line_Drum_1_Dreads_Hit_MP_D4_RR1.opus
xf_velcurve=gain
xfin_hivel=25
xfin_lovel=5
xfout_hivel=71
xfout_lovel=51
</region>

<region>
hivel=45
key=G3
lovel=0
offset=4535
sample=Tenors_Line_Drum_1_Dreads_Hit_P_D4_RR1.opus
xf_velcurve=gain
xfout_hivel=45
xfout_lovel=25
</region>

<region>
hivel=123
key=F#3
lovel=57
offset=4333
sample=Tenors_Line_Drum_2_Dreads_Hit_F_D4_RR1.opus
xf_velcurve=gain
xfin_hivel=77
xfin_lovel=57
xfout_hivel=123
xfout_lovel=103
</region>

<region>
hivel=127
key=F#3
lovel=83
offset=622
sample=Tenors_Line_Drum_2_Dreads_Hit_FF_D4_RR1.opus
xf_velcurve=gain
xfin_hivel=103
xfin_lovel=83
</region>

<region>
hivel=97
key=F#3
lovel=31
offset=4929
sample=Tenors_Line_Drum_2_Dreads_Hit_MF_D4_RR1.opus
xf_velcurve=gain
xfin_hivel=51
xfin_lovel=31
xfout_hivel=97
xfout_lovel=77
</region>

<region>
hivel=71
key=F#3
lovel=5
offset=4637
sample=Tenors_Line_Drum_2_Dreads_Hit_MP_D4_RR1.opus
xf_velcurve=gain
xfin_hivel=25
xfin_lovel=5
xfout_hivel=71
xfout_lovel=51
</region>

<region>
hivel=45
key=F#3
lovel=0
offset=5208
sample=Tenors_Line_Drum_2_Dreads_Hit_P_D4_RR1.opus
xf_velcurve=gain
xfout_hivel=45
xfout_lovel=25
</region>

<region>
hivel=123
key=F3
lovel=57
offset=619
sample=Tenors_Line_Drum_3_Dreads_Hit_F_D4_RR1.opus
xf_velcurve=gain
xfin_hivel=77
xfin_lovel=57
xfout_hivel=123
xfout_lovel=103
</region>

<region>
hivel=127
key=F3
lovel=83
offset=5170
sample=Tenors_Line_Drum_3_Dreads_Hit_FF_D4_RR1.opus
xf_velcurve=gain
xfin_hivel=103
xfin_lovel=83
</region>

<region>
hivel=97
key=F3
lovel=31
offset=4375
sample=Tenors_Line_Drum_3_Dreads_Hit_MF_D4_RR1.opus
xf_velcurve=gain
xfin_hivel=51
xfin_lovel=31
xfout_hivel=97
xfout_lovel=77
</region>

<region>
hivel=71
key=F3
lovel=5
offset=4419
sample=Tenors_Line_Drum_3_Dreads_Hit_MP_D4_RR1.opus
xf_velcurve=gain
xfin_hivel=25
xfin_lovel=5
xfout_hivel=71
xfout_lovel=51
</region>

<region>
hivel=45
key=F3
lovel=0
offset=5237
sample=Tenors_Line_Drum_3_Dreads_Hit_P_D4_RR1.opus
xf_velcurve=gain
xfout_hivel=45
xfout_lovel=25
</region>

<region>
hivel=123
key=E3
lovel=57
offset=3737
sample=Tenors_Line_Drum_4_Dreads_Hit_F_D4_RR1.opus
xf_velcurve=gain
xfin_hivel=77
xfin_lovel=57
xfout_hivel=123
xfout_lovel=103
</region>

<region>
hivel=127
key=E3
lovel=83
offset=709
sample=Tenors_Line_Drum_4_Dreads_Hit_FF_D4_RR1.opus
xf_velcurve=gain
xfin_hivel=103
xfin_lovel=83
</region>

<region>
hivel=97
key=E3
lovel=31
offset=3725
sample=Tenors_Line_Drum_4_Dreads_Hit_MF_D4_RR1.opus
xf_velcurve=gain
xfin_hivel=51
xfin_lovel=31
xfout_hivel=97
xfout_lovel=77
</region>

<region>
hivel=71
key=E3
lovel=5
offset=3608
sample=Tenors_Line_Drum_4_Dreads_Hit_MP_D4_RR1.opus
xf_velcurve=gain
xfin_hivel=25
xfin_lovel=5
xfout_hivel=71
xfout_lovel=51
</region>

<region>
hivel=45
key=E3
lovel=0
offset=3807
sample=Tenors_Line_Drum_4_Dreads_Hit_P_D4_RR1.opus
xf_velcurve=gain
xfout_hivel=45
xfout_lovel=25
</region>

<region>
hivel=123
key=D#3
lovel=57
offset=1640
sample=Tenors_Line_Drum_5_Dreads_Hit_F_D4_RR1.opus
xf_velcurve=gain
xfin_hivel=77
xfin_lovel=57
xfout_hivel=123
xfout_lovel=103
</region>

<region>
hivel=127
key=D#3
lovel=83
offset=742
sample=Tenors_Line_Drum_5_Dreads_Hit_FF_D4_RR1.opus
xf_velcurve=gain
xfin_hivel=103
xfin_lovel=83
</region>

<region>
hivel=97
key=D#3
lovel=31
offset=4422
sample=Tenors_Line_Drum_5_Dreads_Hit_MF_D4_RR1.opus
xf_velcurve=gain
xfin_hivel=51
xfin_lovel=31
xfout_hivel=97
xfout_lovel=77
</region>

<region>
hivel=71
key=D#3
lovel=5
offset=4438
sample=Tenors_Line_Drum_5_Dreads_Hit_MP_D4_RR1.opus
xf_velcurve=gain
xfin_hivel=25
xfin_lovel=5
xfout_hivel=71
xfout_lovel=51
</region>

<region>
hivel=45
key=D#3
lovel=0
offset=4460
sample=Tenors_Line_Drum_5_Dreads_Hit_P_D4_RR1.opus
xf_velcurve=gain
xfout_hivel=45
xfout_lovel=25
</region>

<region>
hivel=123
key=D3
lovel=57
offset=2156
sample=Tenors_Line_Drum_6_Dreads_Hit_F_D4_RR1.opus
xf_velcurve=gain
xfin_hivel=77
xfin_lovel=57
xfout_hivel=123
xfout_lovel=103
</region>

<region>
hivel=127
key=D3
lovel=83
offset=786
sample=Tenors_Line_Drum_6_Dreads_Hit_FF_D4_RR1.opus
xf_velcurve=gain
xfin_hivel=103
xfin_lovel=83
</region>

<region>
hivel=97
key=D3
lovel=31
offset=4344
sample=Tenors_Line_Drum_6_Dreads_Hit_MF_D4_RR1.opus
xf_velcurve=gain
xfin_hivel=51
xfin_lovel=31
xfout_hivel=97
xfout_lovel=77
</region>

<region>
hivel=71
key=D3
lovel=5
offset=2099
sample=Tenors_Line_Drum_6_Dreads_Hit_MP_D4_RR1.opus
xf_velcurve=gain
xfin_hivel=25
xfin_lovel=5
xfout_hivel=71
xfout_lovel=51
</region>

<region>
hivel=45
key=D3
lovel=0
offset=890
sample=Tenors_Line_Drum_6_Dreads_Hit_P_D4_RR1.opus
xf_velcurve=gain
xfout_hivel=45
xfout_lovel=25
</region>
</group>

<group>
group_label=RR3
seq_length=4
seq_position=2

<region>
hivel=123
key=G3
lovel=57
offset=1916
sample=Tenors_Line_Drum_1_Dreads_Hit_F_D4_RR3.opus
xf_velcurve=gain
xfin_hivel=77
xfin_lovel=57
xfout_hivel=123
xfout_lovel=103
</region>

<region>
hivel=127
key=G3
lovel=83
offset=813
sample=Tenors_Line_Drum_1_Dreads_Hit_FF_D4_RR3.opus
xf_velcurve=gain
xfin_hivel=103
xfin_lovel=83
</region>

<region>
hivel=97
key=G3
lovel=31
offset=5601
sample=Tenors_Line_Drum_1_Dreads_Hit_MF_D4_RR3.opus
xf_velcurve=gain
xfin_hivel=51
xfin_lovel=31
xfout_hivel=97
xfout_lovel=77
</region>

<region>
hivel=71
key=G3
lovel=5
offset=4076
sample=Tenors_Line_Drum_1_Dreads_Hit_MP_D4_RR3.opus
xf_velcurve=gain
xfin_hivel=25
xfin_lovel=5
xfout_hivel=71
xfout_lovel=51
</region>

<region>
hivel=45
key=G3
lovel=0
offset=4206
sample=Tenors_Line_Drum_1_Dreads_Hit_P_D4_RR3.opus
xf_velcurve=gain
xfout_hivel=45
xfout_lovel=25
</region>

<region>
hivel=123
key=F#3
lovel=57
offset=738
sample=Tenors_Line_Drum_2_Dreads_Hit_F_D4_RR3.opus
xf_velcurve=gain
xfin_hivel=77
xfin_lovel=57
xfout_hivel=123
xfout_lovel=103
</region>

<region>
hivel=127
key=F#3
lovel=83
offset=1217
sample=Tenors_Line_Drum_2_Dreads_Hit_FF_D4_RR3.opus
xf_velcurve=gain
xfin_hivel=103
xfin_lovel=83
</region>

<region>
hivel=97
key=F#3
lovel=31
offset=5526
sample=Tenors_Line_Drum_2_Dreads_Hit_MF_D4_RR3.opus
xf_velcurve=gain
xfin_hivel=51
xfin_lovel=31
xfout_hivel=97
xfout_lovel=77
</region>

<region>
hivel=71
key=F#3
lovel=5
offset=3390
sample=Tenors_Line_Drum_2_Dreads_Hit_MP_D4_RR3.opus
xf_velcurve=gain
xfin_hivel=25
xfin_lovel=5
xfout_hivel=71
xfout_lovel=51
</region>

<region>
hivel=45
key=F#3
lovel=0
offset=5754
sample=Tenors_Line_Drum_2_Dreads_Hit_P_D4_RR3.opus
xf_velcurve=gain
xfout_hivel=45
xfout_lovel=25
</region>

<region>
hivel=123
key=F3
lovel=57
offset=703
sample=Tenors_Line_Drum_3_Dreads_Hit_F_D4_RR3.opus
xf_velcurve=gain
xfin_hivel=77
xfin_lovel=57
xfout_hivel=123
xfout_lovel=103
</region>

<region>
hivel=127
key=F3
lovel=83
offset=714
sample=Tenors_Line_Drum_3_Dreads_Hit_FF_D4_RR3.opus
xf_velcurve=gain
xfin_hivel=103
xfin_lovel=83
</region>

<region>
hivel=97
key=F3
lovel=31
offset=4540
sample=Tenors_Line_Drum_3_Dreads_Hit_MF_D4_RR3.opus
xf_velcurve=gain
xfin_hivel=51
xfin_lovel=31
xfout_hivel=97
xfout_lovel=77
</region>

<region>
hivel=71
key=F3
lovel=5
offset=3755
sample=Tenors_Line_Drum_3_Dreads_Hit_MP_D4_RR3.opus
xf_velcurve=gain
xfin_hivel=25
xfin_lovel=5
xfout_hivel=71
xfout_lovel=51
</region>

<region>
hivel=45
key=F3
lovel=0
offset=4861
sample=Tenors_Line_Drum_3_Dreads_Hit_P_D4_RR3.opus
xf_velcurve=gain
xfout_hivel=45
xfout_lovel=25
</region>

<region>
hivel=123
key=E3
lovel=57
offset=2957
sample=Tenors_Line_Drum_4_Dreads_Hit_F_D4_RR3.opus
xf_velcurve=gain
xfin_hivel=77
xfin_lovel=57
xfout_hivel=123
xfout_lovel=103
</region>

<region>
hivel=127
key=E3
lovel=83
offset=757
sample=Tenors_Line_Drum_4_Dreads_Hit_FF_D4_RR3.opus
xf_velcurve=gain
xfin_hivel=103
xfin_lovel=83
</region>

<region>
hivel=97
key=E3
lovel=31
offset=4951
sample=Tenors_Line_Drum_4_Dreads_Hit_MF_D4_RR3.opus
xf_velcurve=gain
xfin_hivel=51
xfin_lovel=31
xfout_hivel=97
xfout_lovel=77
</region>

<region>
hivel=71
key=E3
lovel=5
offset=2508
sample=Tenors_Line_Drum_4_Dreads_Hit_MP_D4_RR3.opus
xf_velcurve=gain
xfin_hivel=25
xfin_lovel=5
xfout_hivel=71
xfout_lovel=51
</region>

<region>
hivel=45
key=E3
lovel=0
offset=4597
sample=Tenors_Line_Drum_4_Dreads_Hit_P_D4_RR3.opus
xf_velcurve=gain
xfout_hivel=45
xfout_lovel=25
</region>

<region>
hivel=123
key=D#3
lovel=57
offset=808
sample=Tenors_Line_Drum_5_Dreads_Hit_F_D4_RR3.opus
xf_velcurve=gain
xfin_hivel=77
xfin_lovel=57
xfout_hivel=123
xfout_lovel=103
</region>

<region>
hivel=127
key=D#3
lovel=83
offset=748
sample=Tenors_Line_Drum_5_Dreads_Hit_FF_D4_RR3.opus
xf_velcurve=gain
xfin_hivel=103
xfin_lovel=83
</region>

<region>
hivel=97
key=D#3
lovel=31
offset=4259
sample=Tenors_Line_Drum_5_Dreads_Hit_MF_D4_RR3.opus
xf_velcurve=gain
xfin_hivel=51
xfin_lovel=31
xfout_hivel=97
xfout_lovel=77
</region>

<region>
hivel=71
key=D#3
lovel=5
offset=4980
sample=Tenors_Line_Drum_5_Dreads_Hit_MP_D4_RR3.opus
xf_velcurve=gain
xfin_hivel=25
xfin_lovel=5
xfout_hivel=71
xfout_lovel=51
</region>

<region>
hivel=45
key=D#3
lovel=0
offset=3851
sample=Tenors_Line_Drum_5_Dreads_Hit_P_D4_RR3.opus
xf_velcurve=gain
xfout_hivel=45
xfout_lovel=25
</region>

<region>
hivel=123
key=D3
lovel=57
offset=763
sample=Tenors_Line_Drum_6_Dreads_Hit_F_D4_RR3.opus
xf_velcurve=gain
xfin_hivel=77
xfin_lovel=57
xfout_hivel=123
xfout_lovel=103
</region>

<region>
hivel=127
key=D3
lovel=83
offset=807
sample=Tenors_Line_Drum_6_Dreads_Hit_FF_D4_RR3.opus
xf_velcurve=gain
xfin_hivel=103
xfin_lovel=83
</region>

<region>
hivel=97
key=D3
lovel=31
offset=2801
sample=Tenors_Line_Drum_6_Dreads_Hit_MF_D4_RR3.opus
xf_velcurve=gain
xfin_hivel=51
xfin_lovel=31
xfout_hivel=97
xfout_lovel=77
</region>

<region>
hivel=71
key=D3
lovel=5
offset=2541
sample=Tenors_Line_Drum_6_Dreads_Hit_MP_D4_RR3.opus
xf_velcurve=gain
xfin_hivel=25
xfin_lovel=5
xfout_hivel=71
xfout_lovel=51
</region>

<region>
hivel=45
key=D3
lovel=0
sample=Tenors_Line_Drum_6_Dreads_Hit_P_D4_RR3.opus
xf_velcurve=gain
xfout_hivel=45
xfout_lovel=25
</region>
</group>

<group>
group_label=RR5
seq_length=4
seq_position=3

<region>
hivel=123
key=G3
lovel=57
offset=5213
sample=Tenors_Line_Drum_1_Dreads_Hit_F_D4_RR5.opus
xf_velcurve=gain
xfin_hivel=77
xfin_lovel=57
xfout_hivel=123
xfout_lovel=103
</region>

<region>
hivel=127
key=G3
lovel=83
offset=3231
sample=Tenors_Line_Drum_1_Dreads_Hit_FF_D4_RR5.opus
xf_velcurve=gain
xfin_hivel=103
xfin_lovel=83
</region>

<region>
hivel=97
key=G3
lovel=31
offset=4659
sample=Tenors_Line_Drum_1_Dreads_Hit_MF_D4_RR5.opus
xf_velcurve=gain
xfin_hivel=51
xfin_lovel=31
xfout_hivel=97
xfout_lovel=77
</region>

<region>
hivel=71
key=G3
lovel=5
offset=3750
sample=Tenors_Line_Drum_1_Dreads_Hit_MP_D4_RR5.opus
xf_velcurve=gain
xfin_hivel=25
xfin_lovel=5
xfout_hivel=71
xfout_lovel=51
</region>

<region>
hivel=45
key=G3
lovel=0
offset=2264
sample=Tenors_Line_Drum_1_Dreads_Hit_P_D4_RR5.opus
xf_velcurve=gain
xfout_hivel=45
xfout_lovel=25
</region>

<region>
hivel=123
key=F#3
lovel=57
offset=2367
sample=Tenors_Line_Drum_2_Dreads_Hit_F_D4_RR5.opus
xf_velcurve=gain
xfin_hivel=77
xfin_lovel=57
xfout_hivel=123
xfout_lovel=103
</region>

<region>
hivel=127
key=F#3
lovel=83
offset=4536
sample=Tenors_Line_Drum_2_Dreads_Hit_FF_D4_RR5.opus
xf_velcurve=gain
xfin_hivel=103
xfin_lovel=83
</region>

<region>
hivel=97
key=F#3
lovel=31
offset=5050
sample=Tenors_Line_Drum_2_Dreads_Hit_MF_D4_RR5.opus
xf_velcurve=gain
xfin_hivel=51
xfin_lovel=31
xfout_hivel=97
xfout_lovel=77
</region>

<region>
hivel=71
key=F#3
lovel=5
offset=4219
sample=Tenors_Line_Drum_2_Dreads_Hit_MP_D4_RR5.opus
xf_velcurve=gain
xfin_hivel=25
xfin_lovel=5
xfout_hivel=71
xfout_lovel=51
</region>

<region>
hivel=45
key=F#3
lovel=0
offset=3226
sample=Tenors_Line_Drum_2_Dreads_Hit_P_D4_RR5.opus
xf_velcurve=gain
xfout_hivel=45
xfout_lovel=25
</region>

<region>
hivel=123
key=F3
lovel=57
offset=726
sample=Tenors_Line_Drum_3_Dreads_Hit_F_D4_RR5.opus
xf_velcurve=gain
xfin_hivel=77
xfin_lovel=57
xfout_hivel=123
xfout_lovel=103
</region>

<region>
hivel=127
key=F3
lovel=83
offset=582
sample=Tenors_Line_Drum_3_Dreads_Hit_FF_D4_RR5.opus
xf_velcurve=gain
xfin_hivel=103
xfin_lovel=83
</region>

<region>
hivel=97
key=F3
lovel=31
offset=4213
sample=Tenors_Line_Drum_3_Dreads_Hit_MF_D4_RR5.opus
xf_velcurve=gain
xfin_hivel=51
xfin_lovel=31
xfout_hivel=97
xfout_lovel=77
</region>

<region>
hivel=71
key=F3
lovel=5
offset=3041
sample=Tenors_Line_Drum_3_Dreads_Hit_MP_D4_RR5.opus
xf_velcurve=gain
xfin_hivel=25
xfin_lovel=5
xfout_hivel=71
xfout_lovel=51
</region>

<region>
hivel=45
key=F3
lovel=0
offset=4808
sample=Tenors_Line_Drum_3_Dreads_Hit_P_D4_RR5.opus
xf_velcurve=gain
xfout_hivel=45
xfout_lovel=25
</region>

<region>
hivel=123
key=E3
lovel=57
offset=738
sample=Tenors_Line_Drum_4_Dreads_Hit_F_D4_RR5.opus
xf_velcurve=gain
xfin_hivel=77
xfin_lovel=57
xfout_hivel=123
xfout_lovel=103
</region>

<region>
hivel=127
key=E3
lovel=83
offset=758
sample=Tenors_Line_Drum_4_Dreads_Hit_FF_D4_RR5.opus
xf_velcurve=gain
xfin_hivel=103
xfin_lovel=83
</region>

<region>
hivel=97
key=E3
lovel=31
offset=3977
sample=Tenors_Line_Drum_4_Dreads_Hit_MF_D4_RR5.opus
xf_velcurve=gain
xfin_hivel=51
xfin_lovel=31
xfout_hivel=97
xfout_lovel=77
</region>

<region>
hivel=71
key=E3
lovel=5
offset=3462
sample=Tenors_Line_Drum_4_Dreads_Hit_MP_D4_RR5.opus
xf_velcurve=gain
xfin_hivel=25
xfin_lovel=5
xfout_hivel=71
xfout_lovel=51
</region>

<region>
hivel=45
key=E3
lovel=0
offset=2643
sample=Tenors_Line_Drum_4_Dreads_Hit_P_D4_RR5.opus
xf_velcurve=gain
xfout_hivel=45
xfout_lovel=25
</region>

<region>
hivel=123
key=D#3
lovel=57
offset=794
sample=Tenors_Line_Drum_5_Dreads_Hit_F_D4_RR5.opus
xf_velcurve=gain
xfin_hivel=77
xfin_lovel=57
xfout_hivel=123
xfout_lovel=103
</region>

<region>
hivel=127
key=D#3
lovel=83
offset=600
sample=Tenors_Line_Drum_5_Dreads_Hit_FF_D4_RR5.opus
xf_velcurve=gain
xfin_hivel=103
xfin_lovel=83
</region>

<region>
hivel=97
key=D#3
lovel=31
offset=1282
sample=Tenors_Line_Drum_5_Dreads_Hit_MF_D4_RR5.opus
xf_velcurve=gain
xfin_hivel=51
xfin_lovel=31
xfout_hivel=97
xfout_lovel=77
</region>

<region>
hivel=71
key=D#3
lovel=5
offset=4776
sample=Tenors_Line_Drum_5_Dreads_Hit_MP_D4_RR5.opus
xf_velcurve=gain
xfin_hivel=25
xfin_lovel=5
xfout_hivel=71
xfout_lovel=51
</region>

<region>
hivel=45
key=D#3
lovel=0
offset=3862
sample=Tenors_Line_Drum_5_Dreads_Hit_P_D4_RR5.opus
xf_velcurve=gain
xfout_hivel=45
xfout_lovel=25
</region>

<region>
hivel=123
key=D3
lovel=57
offset=813
sample=Tenors_Line_Drum_6_Dreads_Hit_F_D4_RR5.opus
xf_velcurve=gain
xfin_hivel=77
xfin_lovel=57
xfout_hivel=123
xfout_lovel=103
</region>

<region>
hivel=127
key=D3
lovel=83
offset=739
sample=Tenors_Line_Drum_6_Dreads_Hit_FF_D4_RR5.opus
xf_velcurve=gain
xfin_hivel=103
xfin_lovel=83
</region>

<region>
hivel=97
key=D3
lovel=31
offset=4106
sample=Tenors_Line_Drum_6_Dreads_Hit_MF_D4_RR5.opus
xf_velcurve=gain
xfin_hivel=51
xfin_lovel=31
xfout_hivel=97
xfout_lovel=77
</region>

<region>
hivel=71
key=D3
lovel=5
offset=1941
sample=Tenors_Line_Drum_6_Dreads_Hit_MP_D4_RR5.opus
xf_velcurve=gain
xfin_hivel=25
xfin_lovel=5
xfout_hivel=71
xfout_lovel=51
</region>

<region>
hivel=45
key=D3
lovel=0
sample=Tenors_Line_Drum_6_Dreads_Hit_P_D4_RR5.opus
xf_velcurve=gain
xfout_hivel=45
xfout_lovel=25
</region>
</group>

<group>
group_label=RR7
seq_length=4
seq_position=4

<region>
hivel=123
key=G3
lovel=57
offset=4670
sample=Tenors_Line_Drum_1_Dreads_Hit_F_D4_RR7.opus
xf_velcurve=gain
xfin_hivel=77
xfin_lovel=57
xfout_hivel=123
xfout_lovel=103
</region>

<region>
hivel=127
key=G3
lovel=83
offset=809
sample=Tenors_Line_Drum_1_Dreads_Hit_FF_D4_RR7.opus
xf_velcurve=gain
xfin_hivel=103
xfin_lovel=83
</region>

<region>
hivel=97
key=G3
lovel=31
offset=3829
sample=Tenors_Line_Drum_1_Dreads_Hit_MF_D4_RR7.opus
xf_velcurve=gain
xfin_hivel=51
xfin_lovel=31
xfout_hivel=97
xfout_lovel=77
</region>

<region>
hivel=71
key=G3
lovel=5
offset=3622
sample=Tenors_Line_Drum_1_Dreads_Hit_MP_D4_RR7.opus
xf_velcurve=gain
xfin_hivel=25
xfin_lovel=5
xfout_hivel=71
xfout_lovel=51
</region>

<region>
hivel=45
key=G3
lovel=0
offset=4787
sample=Tenors_Line_Drum_1_Dreads_Hit_P_D4_RR7.opus
xf_velcurve=gain
xfout_hivel=45
xfout_lovel=25
</region>

<region>
hivel=123
key=F#3
lovel=57
offset=709
sample=Tenors_Line_Drum_2_Dreads_Hit_F_D4_RR7.opus
xf_velcurve=gain
xfin_hivel=77
xfin_lovel=57
xfout_hivel=123
xfout_lovel=103
</region>

<region>
hivel=127
key=F#3
lovel=83
offset=737
sample=Tenors_Line_Drum_2_Dreads_Hit_FF_D4_RR7.opus
xf_velcurve=gain
xfin_hivel=103
xfin_lovel=83
</region>

<region>
hivel=97
key=F#3
lovel=31
offset=4551
sample=Tenors_Line_Drum_2_Dreads_Hit_MF_D4_RR7.opus
xf_velcurve=gain
xfin_hivel=51
xfin_lovel=31
xfout_hivel=97
xfout_lovel=77
</region>

<region>
hivel=71
key=F#3
lovel=5
offset=3608
sample=Tenors_Line_Drum_2_Dreads_Hit_MP_D4_RR7.opus
xf_velcurve=gain
xfin_hivel=25
xfin_lovel=5
xfout_hivel=71
xfout_lovel=51
</region>

<region>
hivel=45
key=F#3
lovel=0
offset=3440
sample=Tenors_Line_Drum_2_Dreads_Hit_P_D4_RR7.opus
xf_velcurve=gain
xfout_hivel=45
xfout_lovel=25
</region>

<region>
hivel=123
key=F3
lovel=57
offset=757
sample=Tenors_Line_Drum_3_Dreads_Hit_F_D4_RR7.opus
xf_velcurve=gain
xfin_hivel=77
xfin_lovel=57
xfout_hivel=123
xfout_lovel=103
</region>

<region>
hivel=127
key=F3
lovel=83
offset=747
sample=Tenors_Line_Drum_3_Dreads_Hit_FF_D4_RR7.opus
xf_velcurve=gain
xfin_hivel=103
xfin_lovel=83
</region>

<region>
hivel=97
key=F3
lovel=31
offset=3460
sample=Tenors_Line_Drum_3_Dreads_Hit_MF_D4_RR7.opus
xf_velcurve=gain
xfin_hivel=51
xfin_lovel=31
xfout_hivel=97
xfout_lovel=77
</region>

<region>
hivel=71
key=F3
lovel=5
offset=3609
sample=Tenors_Line_Drum_3_Dreads_Hit_MP_D4_RR7.opus
xf_velcurve=gain
xfin_hivel=25
xfin_lovel=5
xfout_hivel=71
xfout_lovel=51
</region>

<region>
hivel=45
key=F3
lovel=0
offset=5185
sample=Tenors_Line_Drum_3_Dreads_Hit_P_D4_RR7.opus
xf_velcurve=gain
xfout_hivel=45
xfout_lovel=25
</region>

<region>
hivel=123
key=E3
lovel=57
offset=1073
sample=Tenors_Line_Drum_4_Dreads_Hit_F_D4_RR7.opus
xf_velcurve=gain
xfin_hivel=77
xfin_lovel=57
xfout_hivel=123
xfout_lovel=103
</region>

<region>
hivel=127
key=E3
lovel=83
offset=710
sample=Tenors_Line_Drum_4_Dreads_Hit_FF_D4_RR7.opus
xf_velcurve=gain
xfin_hivel=103
xfin_lovel=83
</region>

<region>
hivel=97
key=E3
lovel=31
offset=4418
sample=Tenors_Line_Drum_4_Dreads_Hit_MF_D4_RR7.opus
xf_velcurve=gain
xfin_hivel=51
xfin_lovel=31
xfout_hivel=97
xfout_lovel=77
</region>

<region>
hivel=71
key=E3
lovel=5
offset=3847
sample=Tenors_Line_Drum_4_Dreads_Hit_MP_D4_RR7.opus
xf_velcurve=gain
xfin_hivel=25
xfin_lovel=5
xfout_hivel=71
xfout_lovel=51
</region>

<region>
hivel=45
key=E3
lovel=0
offset=2925
sample=Tenors_Line_Drum_4_Dreads_Hit_P_D4_RR7.opus
xf_velcurve=gain
xfout_hivel=45
xfout_lovel=25
</region>

<region>
hivel=123
key=D#3
lovel=57
offset=4953
sample=Tenors_Line_Drum_5_Dreads_Hit_F_D4_RR7.opus
xf_velcurve=gain
xfin_hivel=77
xfin_lovel=57
xfout_hivel=123
xfout_lovel=103
</region>

<region>
hivel=127
key=D#3
lovel=83
offset=741
sample=Tenors_Line_Drum_5_Dreads_Hit_FF_D4_RR7.opus
xf_velcurve=gain
xfin_hivel=103
xfin_lovel=83
</region>

<region>
hivel=97
key=D#3
lovel=31
offset=3503
sample=Tenors_Line_Drum_5_Dreads_Hit_MF_D4_RR7.opus
xf_velcurve=gain
xfin_hivel=51
xfin_lovel=31
xfout_hivel=97
xfout_lovel=77
</region>

<region>
hivel=71
key=D#3
lovel=5
offset=5810
sample=Tenors_Line_Drum_5_Dreads_Hit_MP_D4_RR7.opus
xf_velcurve=gain
xfin_hivel=25
xfin_lovel=5
xfout_hivel=71
xfout_lovel=51
</region>

<region>
hivel=45
key=D#3
lovel=0
offset=5082
sample=Tenors_Line_Drum_5_Dreads_Hit_P_D4_RR7.opus
xf_velcurve=gain
xfout_hivel=45
xfout_lovel=25
</region>

<region>
hivel=123
key=D3
lovel=57
offset=822
sample=Tenors_Line_Drum_6_Dreads_Hit_F_D4_RR7.opus
xf_velcurve=gain
xfin_hivel=77
xfin_lovel=57
xfout_hivel=123
xfout_lovel=103
</region>

<region>
hivel=127
key=D3
lovel=83
offset=709
sample=Tenors_Line_Drum_6_Dreads_Hit_FF_D4_RR7.opus
xf_velcurve=gain
xfin_hivel=103
xfin_lovel=83
</region>

<region>
hivel=97
key=D3
lovel=31
offset=4162
sample=Tenors_Line_Drum_6_Dreads_Hit_MF_D4_RR7.opus
xf_velcurve=gain
xfin_hivel=51
xfin_lovel=31
xfout_hivel=97
xfout_lovel=77
</region>

<region>
hivel=71
key=D3
lovel=5
offset=1559
sample=Tenors_Line_Drum_6_Dreads_Hit_MP_D4_RR7.opus
xf_velcurve=gain
xfin_hivel=25
xfin_lovel=5
xfout_hivel=71
xfout_lovel=51
</region>

<region>
hivel=45
key=D3
lovel=0
offset=350
sample=Tenors_Line_Drum_6_Dreads_Hit_P_D4_RR7.opus
xf_velcurve=gain
xfout_hivel=45
xfout_lovel=25
</region>
</group>

<group>
color=green
group_label=Alt_Hits_RR1
seq_length=2
seq_position=1

<region>
hivel=103
key=G4
lovel=78
offset=5316
sample=Tenors_Line_Drum_1_Dreads_Muted_Hit_F_D4_RR1.opus
</region>

<region>
hivel=127
key=G4
lovel=104
offset=3585
sample=Tenors_Line_Drum_1_Dreads_Muted_Hit_FF_D4_RR1.opus
</region>

<region>
hivel=77
key=G4
lovel=52
offset=4097
sample=Tenors_Line_Drum_1_Dreads_Muted_Hit_MF_D4_RR1.opus
</region>

<region>
hivel=51
key=G4
lovel=26
offset=4281
sample=Tenors_Line_Drum_1_Dreads_Muted_Hit_MP_D4_RR1.opus
</region>

<region>
hivel=25
key=G4
lovel=0
offset=3096
sample=Tenors_Line_Drum_1_Dreads_Muted_Hit_P_D4_RR1.opus
</region>

<region>
hivel=103
key=F#4
lovel=78
offset=4429
sample=Tenors_Line_Drum_2_Dreads_Muted_Hit_F_D4_RR1.opus
</region>

<region>
end=51858
hivel=127
key=F#4
lovel=104
offset=6388
sample=Tenors_Line_Drum_2_Dreads_Muted_Hit_FF_D4_RR1.opus
</region>

<region>
hivel=77
key=F#4
lovel=52
offset=4526
sample=Tenors_Line_Drum_2_Dreads_Muted_Hit_MF_D4_RR1.opus
</region>

<region>
hivel=51
key=F#4
lovel=26
offset=2883
sample=Tenors_Line_Drum_2_Dreads_Muted_Hit_MP_D4_RR1.opus
</region>

<region>
hivel=25
key=F#4
lovel=0
offset=3009
sample=Tenors_Line_Drum_2_Dreads_Muted_Hit_P_D4_RR1.opus
</region>

<region>
hivel=103
key=F4
lovel=78
offset=4784
sample=Tenors_Line_Drum_3_Dreads_Muted_Hit_F_D4_RR1.opus
</region>

<region>
hivel=127
key=F4
lovel=104
offset=4369
sample=Tenors_Line_Drum_3_Dreads_Muted_Hit_FF_D4_RR1.opus
</region>

<region>
hivel=77
key=F4
lovel=52
offset=3475
sample=Tenors_Line_Drum_3_Dreads_Muted_Hit_MF_D4_RR1.opus
</region>

<region>
hivel=51
key=F4
lovel=26
offset=2980
sample=Tenors_Line_Drum_3_Dreads_Muted_Hit_MP_D4_RR1.opus
</region>

<region>
hivel=25
key=F4
lovel=0
offset=5488
sample=Tenors_Line_Drum_3_Dreads_Muted_Hit_P_D4_RR1.opus
</region>

<region>
hivel=103
key=E4
lovel=78
offset=4068
sample=Tenors_Line_Drum_4_Dreads_Muted_Hit_F_D4_RR1.opus
</region>

<region>
hivel=127
key=E4
lovel=104
offset=8903
sample=Tenors_Line_Drum_4_Dreads_Muted_Hit_FF_D4_RR1.opus
</region>

<region>
hivel=77
key=E4
lovel=52
offset=4364
sample=Tenors_Line_Drum_4_Dreads_Muted_Hit_MF_D4_RR1.opus
</region>

<region>
hivel=51
key=E4
lovel=26
offset=3307
sample=Tenors_Line_Drum_4_Dreads_Muted_Hit_MP_D4_RR1.opus
</region>

<region>
hivel=25
key=E4
lovel=0
offset=3168
sample=Tenors_Line_Drum_4_Dreads_Muted_Hit_P_D4_RR1.opus
</region>

<region>
hivel=103
key=D#4
lovel=78
offset=5517
sample=Tenors_Line_Drum_5_Dreads_Muted_Hit_F_D4_RR1.opus
</region>

<region>
hivel=127
key=D#4
lovel=104
offset=4194
sample=Tenors_Line_Drum_5_Dreads_Muted_Hit_FF_D4_RR1.opus
</region>

<region>
hivel=77
key=D#4
lovel=52
offset=4390
sample=Tenors_Line_Drum_5_Dreads_Muted_Hit_MF_D4_RR1.opus
</region>

<region>
hivel=51
key=D#4
lovel=26
offset=5778
sample=Tenors_Line_Drum_5_Dreads_Muted_Hit_MP_D4_RR1.opus
</region>

<region>
hivel=25
key=D#4
lovel=0
offset=4644
sample=Tenors_Line_Drum_5_Dreads_Muted_Hit_P_D4_RR1.opus
</region>

<region>
hivel=103
key=D4
lovel=78
offset=2133
sample=Tenors_Line_Drum_6_Dreads_Muted_Hit_F_D4_RR1.opus
</region>

<region>
hivel=127
key=D4
lovel=104
offset=4575
sample=Tenors_Line_Drum_6_Dreads_Muted_Hit_FF_D4_RR1.opus
</region>

<region>
hivel=77
key=D4
lovel=52
offset=4114
sample=Tenors_Line_Drum_6_Dreads_Muted_Hit_MF_D4_RR1.opus
</region>

<region>
hivel=51
key=D4
lovel=26
offset=2474
sample=Tenors_Line_Drum_6_Dreads_Muted_Hit_MP_D4_RR1.opus
</region>

<region>
hivel=25
key=D4
lovel=0
offset=110
sample=Tenors_Line_Drum_6_Dreads_Muted_Hit_P_D4_RR1.opus
</region>
</group>

<group>
color=green
group_label=Alt_Hits_RR3
seq_length=2
seq_position=2

<region>
hivel=103
key=G4
lovel=78
offset=4663
sample=Tenors_Line_Drum_1_Dreads_Muted_Hit_F_D4_RR3.opus
</region>

<region>
hivel=127
key=G4
lovel=104
offset=3980
sample=Tenors_Line_Drum_1_Dreads_Muted_Hit_FF_D4_RR3.opus
</region>

<region>
hivel=77
key=G4
lovel=52
offset=1963
sample=Tenors_Line_Drum_1_Dreads_Muted_Hit_MF_D4_RR3.opus
</region>

<region>
hivel=51
key=G4
lovel=26
offset=3361
sample=Tenors_Line_Drum_1_Dreads_Muted_Hit_MP_D4_RR3.opus
</region>

<region>
hivel=25
key=G4
lovel=0
offset=3871
sample=Tenors_Line_Drum_1_Dreads_Muted_Hit_P_D4_RR3.opus
</region>

<region>
hivel=103
key=F#4
lovel=78
offset=4906
sample=Tenors_Line_Drum_2_Dreads_Muted_Hit_F_D4_RR3.opus
</region>

<region>
hivel=127
key=F#4
lovel=104
offset=4179
sample=Tenors_Line_Drum_2_Dreads_Muted_Hit_FF_D4_RR3.opus
</region>

<region>
hivel=77
key=F#4
lovel=52
offset=5003
sample=Tenors_Line_Drum_2_Dreads_Muted_Hit_MF_D4_RR3.opus
</region>

<region>
hivel=51
key=F#4
lovel=26
offset=3252
sample=Tenors_Line_Drum_2_Dreads_Muted_Hit_MP_D4_RR3.opus
</region>

<region>
hivel=25
key=F#4
lovel=0
offset=3124
sample=Tenors_Line_Drum_2_Dreads_Muted_Hit_P_D4_RR3.opus
</region>

<region>
hivel=103
key=F4
lovel=78
offset=3380
sample=Tenors_Line_Drum_3_Dreads_Muted_Hit_F_D4_RR3.opus
</region>

<region>
hivel=127
key=F4
lovel=104
offset=3562
sample=Tenors_Line_Drum_3_Dreads_Muted_Hit_FF_D4_RR3.opus
</region>

<region>
hivel=77
key=F4
lovel=52
offset=2307
sample=Tenors_Line_Drum_3_Dreads_Muted_Hit_MF_D4_RR3.opus
</region>

<region>
hivel=51
key=F4
lovel=26
offset=3230
sample=Tenors_Line_Drum_3_Dreads_Muted_Hit_MP_D4_RR3.opus
</region>

<region>
hivel=25
key=F4
lovel=0
offset=5573
sample=Tenors_Line_Drum_3_Dreads_Muted_Hit_P_D4_RR3.opus
</region>

<region>
hivel=103
key=E4
lovel=78
offset=4662
sample=Tenors_Line_Drum_4_Dreads_Muted_Hit_F_D4_RR3.opus
</region>

<region>
hivel=127
key=E4
lovel=104
offset=3461
sample=Tenors_Line_Drum_4_Dreads_Muted_Hit_FF_D4_RR3.opus
</region>

<region>
hivel=77
key=E4
lovel=52
offset=3875
sample=Tenors_Line_Drum_4_Dreads_Muted_Hit_MF_D4_RR3.opus
</region>

<region>
hivel=51
key=E4
lovel=26
offset=3329
sample=Tenors_Line_Drum_4_Dreads_Muted_Hit_MP_D4_RR3.opus
</region>

<region>
hivel=25
key=E4
lovel=0
offset=4523
sample=Tenors_Line_Drum_4_Dreads_Muted_Hit_P_D4_RR3.opus
</region>

<region>
hivel=103
key=D#4
lovel=78
offset=5400
sample=Tenors_Line_Drum_5_Dreads_Muted_Hit_F_D4_RR3.opus
</region>

<region>
hivel=127
key=D#4
lovel=104
offset=4410
sample=Tenors_Line_Drum_5_Dreads_Muted_Hit_FF_D4_RR3.opus
</region>

<region>
hivel=77
key=D#4
lovel=52
offset=4063
sample=Tenors_Line_Drum_5_Dreads_Muted_Hit_MF_D4_RR3.opus
</region>

<region>
hivel=51
key=D#4
lovel=26
offset=5064
sample=Tenors_Line_Drum_5_Dreads_Muted_Hit_MP_D4_RR3.opus
</region>

<region>
hivel=25
key=D#4
lovel=0
offset=5700
sample=Tenors_Line_Drum_5_Dreads_Muted_Hit_P_D4_RR3.opus
</region>

<region>
hivel=103
key=D4
lovel=78
offset=1588
sample=Tenors_Line_Drum_6_Dreads_Muted_Hit_F_D4_RR3.opus
</region>

<region>
hivel=127
key=D4
lovel=104
offset=5409
sample=Tenors_Line_Drum_6_Dreads_Muted_Hit_FF_D4_RR3.opus
</region>

<region>
hivel=77
key=D4
lovel=52
offset=4241
sample=Tenors_Line_Drum_6_Dreads_Muted_Hit_MF_D4_RR3.opus
</region>

<region>
hivel=51
key=D4
lovel=26
offset=1687
sample=Tenors_Line_Drum_6_Dreads_Muted_Hit_MP_D4_RR3.opus
</region>

<region>
hivel=25
key=D4
lovel=0
offset=591
sample=Tenors_Line_Drum_6_Dreads_Muted_Hit_P_D4_RR3.opus
</region>
</group>